<?xml version="1.0" standalone="no"?>
<!DOCTYPE svg PUBLIC "-//W3C//DTD SVG 20010904//EN"
 "http://www.w3.org/TR/2001/REC-SVG-20010904/DTD/svg10.dtd">
<svg version="1.0" xmlns="http://www.w3.org/2000/svg"
 width="1080.000000pt" height="1080.000000pt" viewBox="0 0 1080.000000 1080.000000"
 preserveAspectRatio="xMidYMid meet">

<g transform="translate(0.000000,1080.000000) scale(0.100000,-0.100000)"
fill="#000000" stroke="none">
<path d="M1725 9910 c-4 -6 8 -10 29 -10 39 0 100 -45 111 -81 4 -11 9 -18 11
-16 10 10 -25 75 -51 95 -29 23 -89 30 -100 12z"/>
<path d="M1711 9775 c-191 -163 -414 -251 -663 -262 -90 -4 -128 -9 -128 -18
0 -19 120 -129 189 -173 94 -62 178 -87 286 -87 84 0 94 2 154 35 110 59 180
171 215 343 9 42 16 93 15 114 0 32 -5 24 -28 -53 -57 -185 -152 -310 -268
-354 -83 -31 -209 -25 -308 15 -107 43 -299 172 -204 137 13 -5 41 -12 62 -16
34 -6 37 -5 38 16 l0 23 12 -24 c11 -23 13 -24 117 -18 126 7 198 25 307 78
93 44 198 135 240 206 13 24 29 40 34 37 5 -3 9 11 9 30 0 20 -1 36 -2 35 -2
0 -36 -29 -77 -64z"/>
<path d="M2608 9808 c-48 -10 -66 -28 -28 -28 27 0 42 -41 37 -99 -3 -33 -8
-45 -18 -42 -71 22 -143 0 -192 -58 -72 -86 -24 -234 79 -248 32 -4 46 1 81
26 24 17 45 31 48 31 3 0 5 -11 5 -25 0 -23 3 -25 50 -25 50 0 70 16 28 22
-23 3 -23 3 -26 231 -1 125 -6 226 -10 226 -4 -1 -28 -6 -54 -11z m-54 -188
c7 0 24 -10 37 -23 22 -20 25 -30 23 -90 -2 -83 -16 -113 -60 -127 -89 -30
-158 84 -115 189 15 34 63 65 89 56 8 -3 19 -5 26 -5z"/>
<path d="M2042 9796 c-128 -42 -187 -166 -150 -314 14 -58 76 -122 134 -140
102 -30 210 0 275 77 77 89 80 240 6 319 -55 59 -179 86 -265 58z m158 -31
c62 -31 93 -100 93 -206 1 -61 -4 -83 -24 -119 -30 -56 -75 -82 -138 -82 -113
0 -183 86 -185 227 -1 111 45 179 131 195 44 8 87 3 123 -15z"/>
<path d="M3438 9739 c-13 -7 -18 -23 -18 -59 0 -44 -3 -51 -27 -64 -25 -14
-26 -15 -7 -16 21 0 22 -6 26 -121 4 -104 7 -123 23 -135 27 -20 69 -17 96 6
l24 19 -30 1 c-49 0 -55 14 -55 127 l0 103 40 0 c29 0 40 4 40 15 0 11 -11 15
-40 15 l-40 0 0 60 c0 62 -3 66 -32 49z"/>
<path d="M2801 9633 c-52 -27 -74 -64 -79 -131 -8 -105 49 -172 145 -172 139
0 214 174 119 278 -30 32 -39 36 -92 39 -43 3 -68 -1 -93 -14z m133 -33 c47
-57 48 -187 1 -227 -67 -58 -149 -1 -156 107 -4 75 0 96 26 124 36 38 94 37
129 -4z"/>
<path d="M3063 9637 c-47 -12 -56 -24 -20 -29 21 -3 22 -6 22 -123 0 -117 -1
-120 -22 -123 -13 -2 -23 -8 -23 -13 0 -5 36 -9 81 -9 51 0 78 4 74 10 -3 6
-15 10 -26 10 -18 0 -19 8 -19 105 0 121 12 145 75 145 64 0 75 -23 75 -155
l0 -115 55 0 c60 0 68 5 30 20 -24 9 -25 13 -26 102 0 51 -5 109 -12 128 -21
62 -95 78 -159 35 -20 -14 -39 -25 -42 -25 -4 0 -6 11 -6 25 0 14 -3 24 -7 24
-5 -1 -27 -7 -50 -12z"/>
<path d="M3621 9632 c-48 -24 -73 -62 -79 -120 -6 -63 10 -111 49 -148 27 -26
37 -29 94 -29 68 0 99 15 137 66 50 67 25 199 -45 232 -45 22 -113 22 -156 -1z
m133 -32 c30 -36 40 -82 34 -152 -4 -40 -12 -57 -32 -75 -49 -42 -115 -22
-142 43 -28 67 -11 191 28 207 7 3 29 6 50 6 29 1 42 -5 62 -29z"/>
<path d="M3890 9624 c-28 -24 -31 -32 -28 -73 l3 -46 60 -23 c85 -32 90 -36
93 -70 2 -22 -3 -34 -20 -46 -45 -32 -99 -15 -122 37 l-14 32 -1 -32 c-1 -17
-4 -38 -7 -46 -4 -12 5 -17 40 -22 84 -13 119 1 174 69 35 44 -5 94 -99 120
-70 19 -89 44 -64 82 10 16 25 24 44 24 45 0 62 -10 77 -44 l13 -31 1 41 c0
48 -9 54 -75 54 -32 0 -51 -7 -75 -26z"/>
<path d="M7390 9051 l0 -381 125 0 125 0 0 89 0 88 108 6 c138 7 191 26 258
91 40 39 56 64 68 105 34 115 11 210 -68 287 -82 80 -110 87 -383 92 l-233 4
0 -381z m403 168 c26 -12 47 -47 47 -79 0 -32 -21 -67 -47 -79 -13 -6 -53 -11
-88 -11 l-65 0 0 90 0 90 65 0 c35 0 75 -5 88 -11z"/>
<path d="M8170 9045 l0 -375 423 0 423 0 23 65 23 66 146 -3 146 -3 25 -62 24
-63 128 0 127 0 -161 375 -162 375 -125 0 -125 0 -160 -372 -160 -371 -3 96
-3 97 -169 0 -170 0 0 275 0 275 -125 0 -125 0 0 -375z m1073 40 c14 -38 29
-78 33 -87 5 -16 -1 -18 -65 -18 -39 0 -71 3 -71 8 0 19 65 181 70 174 4 -4
18 -38 33 -77z"/>
<path d="M9700 9045 l0 -375 120 0 120 0 0 165 c0 91 3 165 8 165 4 0 70 -74
146 -165 l138 -165 101 0 102 0 -3 375 -2 375 -120 0 -120 0 -2 -170 -3 -169
-140 169 -139 170 -103 0 -103 0 0 -375z"/>
<path d="M9943 8565 c-209 -47 -339 -237 -303 -444 31 -177 154 -294 342 -323
138 -21 290 24 378 112 128 128 146 355 39 504 -91 127 -283 191 -456 151z
m206 -225 c93 -65 93 -244 1 -310 -39 -28 -117 -38 -160 -20 -42 17 -87 72
-100 122 -23 83 9 168 80 216 46 31 130 28 179 -8z"/>
<path d="M5450 8181 l0 -381 125 0 125 0 0 89 0 88 103 6 c137 7 199 29 264
92 39 38 55 63 67 104 34 115 11 210 -69 288 -80 78 -113 85 -387 91 l-228 4
0 -381z m403 168 c26 -12 47 -47 47 -79 0 -32 -21 -67 -47 -79 -13 -6 -53 -11
-88 -11 l-65 0 0 90 0 90 65 0 c35 0 75 -5 88 -11z"/>
<path d="M7680 8460 l0 -100 110 0 110 0 0 -280 0 -280 120 0 120 0 0 280 0
280 110 0 110 0 0 100 0 100 -340 0 -340 0 0 -100z"/>
<path d="M6240 8175 l0 -375 418 0 418 0 23 65 23 66 146 -3 146 -3 24 -62 24
-63 128 0 128 0 -161 375 -162 375 -125 0 -125 0 -155 -360 -155 -360 -3 85
-3 85 -169 0 -170 0 0 275 0 275 -125 0 -125 0 0 -375z m1063 40 c14 -38 29
-78 33 -87 5 -16 -1 -18 -65 -18 -39 0 -71 3 -71 8 0 19 65 181 70 174 4 -4
18 -38 33 -77z"/>
<path d="M8430 8175 l0 -375 125 0 125 0 0 375 0 375 -125 0 -125 0 0 -375z"/>
<path d="M8800 8175 l0 -375 120 0 120 0 0 165 c0 91 3 165 8 165 4 0 69 -74
146 -165 l138 -166 102 3 c55 2 100 6 99 11 -2 4 -3 171 -3 372 l0 365 -120 0
-120 0 -2 -170 -3 -169 -140 169 -139 170 -103 0 -103 0 0 -375z"/>
<path d="M4105 8340 c4 -6 11 -8 16 -5 14 9 11 15 -7 15 -8 0 -12 -5 -9 -10z"/>
<path d="M4146 8339 c3 -5 24 -9 46 -9 51 0 47 5 -10 13 -24 3 -40 1 -36 -4z"/>
<path d="M3698 8314 c-8 -8 -39 -19 -69 -24 -30 -4 -80 -13 -112 -20 -33 -6
-66 -9 -74 -6 -8 3 -27 -1 -41 -9 -15 -8 -78 -26 -141 -40 -63 -15 -122 -30
-130 -34 -9 -5 -33 -11 -53 -15 -29 -5 -36 -10 -31 -23 4 -10 2 -14 -4 -10 -6
4 -58 -2 -115 -14 -104 -22 -247 -81 -254 -106 -2 -7 -6 -20 -9 -29 -3 -8 -10
-12 -15 -9 -8 5 -7 11 1 21 6 8 8 14 3 14 -14 -1 -44 -26 -38 -33 3 -3 -8 -8
-25 -12 -30 -6 -43 -25 -18 -25 6 -1 -1 -8 -18 -17 -16 -8 -49 -31 -72 -49
-23 -19 -46 -34 -53 -34 -6 0 -23 -13 -39 -29 -15 -16 -38 -32 -50 -36 -11 -3
-21 -10 -21 -15 0 -4 -9 -10 -20 -13 -12 -3 -20 -14 -20 -26 0 -12 -6 -21 -15
-21 -7 0 -18 -6 -22 -13 -10 -17 -73 -61 -91 -63 -7 -1 -23 -15 -35 -30 -12
-16 -31 -35 -41 -44 -11 -8 -32 -27 -46 -41 -14 -14 -36 -30 -50 -34 -36 -11
-320 -302 -320 -327 0 -5 -6 -8 -13 -8 -8 0 -20 -12 -27 -27 -8 -16 -30 -52
-48 -81 -19 -29 -32 -59 -29 -66 3 -8 -1 -20 -9 -26 -8 -7 -14 -9 -14 -4 0 16
-80 -151 -80 -168 0 -9 -5 -20 -10 -23 -15 -10 -12 -35 4 -29 26 10 25 -13 -3
-47 -15 -19 -33 -44 -40 -56 -10 -20 -9 -23 6 -24 15 0 15 -2 -4 -16 -29 -20
-29 -41 -1 -45 33 -4 28 -20 -12 -40 -19 -9 -32 -17 -27 -18 4 0 -10 -16 -30
-35 l-38 -36 40 17 40 16 -26 -29 c-15 -15 -30 -44 -34 -63 -4 -19 -23 -54
-41 -77 -45 -55 -43 -63 6 -19 22 20 42 36 45 36 14 0 1 -22 -30 -51 -34 -32
-50 -64 -20 -39 24 20 31 2 8 -23 -11 -12 -19 -27 -16 -34 2 -6 -5 -16 -15
-22 -19 -10 -37 -53 -34 -77 1 -6 -9 -16 -23 -22 -31 -14 -35 -53 -5 -45 11 3
17 10 13 17 -3 6 0 5 8 -2 12 -11 11 -16 -6 -28 -11 -8 -27 -20 -35 -27 -28
-23 -50 -28 -43 -10 4 11 2 14 -5 9 -7 -4 -12 -17 -12 -29 0 -13 -14 -32 -35
-47 -39 -28 -45 -41 -15 -33 26 7 26 -13 0 -27 -19 -10 -36 -37 -74 -115 -8
-16 -24 -42 -36 -58 -12 -15 -23 -39 -25 -54 -1 -14 -10 -30 -18 -34 -8 -5
-19 -24 -22 -42 -4 -17 -10 -36 -14 -42 -4 -5 -7 -26 -6 -45 1 -19 -5 -48 -13
-63 -37 -76 -71 -224 -57 -247 11 -17 25 8 25 43 0 32 16 67 30 67 6 0 10 -11
10 -25 0 -13 7 -28 16 -33 13 -7 14 -13 5 -31 -7 -11 -16 -21 -21 -21 -6 0 -5
-9 2 -20 7 -11 16 -20 19 -20 11 0 24 52 32 130 2 19 9 48 15 63 7 16 12 32
12 37 0 18 53 130 61 130 12 0 12 -2 -11 -60 -11 -28 -20 -56 -20 -63 1 -21
30 26 41 66 17 62 21 35 5 -29 -8 -33 -18 -70 -22 -83 -5 -18 -4 -22 5 -16 10
6 12 -3 11 -36 -4 -68 1 -78 15 -34 l13 40 1 -35 c1 -20 -5 -42 -11 -49 -9
-10 -9 -12 -1 -7 16 9 27 -12 15 -27 -5 -7 -13 -66 -17 -132 -4 -66 -11 -142
-17 -170 -5 -27 -11 -65 -13 -83 -4 -40 -33 -104 -44 -97 -5 2 -11 17 -14 32
-3 16 -8 35 -12 45 -4 11 0 18 13 22 28 9 43 50 48 131 3 38 10 94 16 123 6
28 9 55 5 58 -11 12 -35 -63 -42 -130 -6 -75 -18 -106 -40 -106 -9 0 -17 -15
-20 -37 -4 -21 -9 -47 -13 -58 -3 -11 -5 -26 -4 -33 2 -6 -10 -29 -26 -50 -16
-20 -32 -46 -35 -57 -19 -67 -36 -99 -56 -102 -13 -2 -21 2 -21 12 0 8 6 15
14 15 20 0 56 79 59 128 1 23 6 42 10 42 18 0 35 70 41 160 6 94 6 94 -8 46
-8 -27 -21 -55 -31 -62 -15 -11 -15 -13 1 -22 15 -9 15 -14 -5 -71 -11 -33
-21 -76 -21 -94 0 -18 -7 -42 -15 -53 -14 -17 -15 -15 -11 33 5 75 -7 76 -19
1 -5 -35 -14 -62 -18 -60 -10 4 -58 -34 -58 -45 1 -4 6 -8 11 -8 24 0 12 -20
-14 -25 -16 -3 -31 -11 -34 -19 -3 -9 1 -11 16 -7 12 4 23 2 28 -6 4 -7 4 -10
-1 -6 -7 7 -35 -14 -35 -26 0 -9 -73 -76 -82 -76 -4 0 -20 -13 -35 -28 -16
-15 -41 -36 -58 -47 -17 -10 -24 -20 -17 -23 7 -2 10 -8 6 -13 -12 -21 17 -6
65 31 28 22 55 40 60 40 18 0 18 -25 -1 -69 -22 -51 -17 -64 12 -30 21 24 21
24 15 2 -6 -23 8 -32 20 -13 8 13 25 13 25 -1 0 -6 -7 -17 -15 -25 -29 -29
-15 -37 15 -9 17 16 28 35 26 41 -5 12 34 44 53 44 5 0 7 -10 3 -22 -4 -15 -2
-19 7 -13 7 4 10 16 8 26 -3 12 5 31 20 50 18 21 24 38 21 59 -2 16 0 28 5 27
13 -3 48 64 43 84 0 3 5 13 12 22 8 9 14 38 16 64 2 56 32 111 50 92 8 -8 8
-13 -1 -16 -7 -3 -13 -17 -13 -31 0 -15 -7 -40 -16 -57 -9 -16 -24 -63 -34
-103 -10 -41 -26 -82 -36 -93 -9 -11 -14 -22 -11 -26 4 -3 7 -1 7 5 0 7 6 12
14 12 7 0 57 43 112 95 54 52 101 95 104 95 3 0 18 21 34 47 17 25 32 41 34
35 2 -7 -10 -30 -27 -51 -17 -21 -31 -44 -31 -50 0 -14 -23 -52 -63 -104 -45
-58 -23 -56 39 4 31 30 62 60 70 68 8 7 18 10 22 6 4 -4 -3 -15 -16 -26 -16
-12 -22 -25 -18 -37 5 -14 -1 -24 -19 -36 -13 -9 -34 -34 -45 -55 -10 -21 -25
-45 -32 -52 -23 -25 -50 -71 -44 -76 3 -4 -3 -12 -14 -20 -11 -8 -20 -21 -20
-29 0 -8 -4 -14 -9 -14 -5 0 -14 -13 -19 -28 -5 -16 -24 -45 -41 -64 -17 -19
-28 -37 -26 -40 3 -3 -1 -11 -10 -18 -13 -11 -14 -10 -9 5 5 12 4 16 -3 12 -6
-4 -13 -19 -16 -34 -3 -16 -15 -32 -29 -38 -16 -7 -23 -18 -22 -35 1 -14 -4
-29 -11 -35 -6 -5 -26 -28 -43 -51 -29 -38 -30 -44 -23 -90 7 -40 9 -43 10
-16 1 43 26 101 46 108 24 10 30 -4 12 -24 -17 -18 -19 -82 -3 -82 5 0 3 -6
-3 -14 -7 -8 -9 -35 -4 -76 4 -47 3 -61 -5 -56 -7 4 -12 20 -12 37 0 34 -16
39 -23 7 -4 -19 -2 -83 3 -83 1 0 3 -43 5 -95 3 -66 1 -96 -7 -101 -7 -5 -12
-26 -11 -48 3 -59 -15 -50 -23 12 -7 48 -8 50 -16 25 -6 -16 -14 -28 -20 -28
-6 0 -8 -7 -5 -14 4 -10 1 -13 -9 -9 -8 3 -22 -3 -30 -13 -14 -18 -15 -17 -10
14 6 33 -13 162 -24 162 -3 0 -6 -47 -7 -105 -1 -109 -17 -175 -41 -175 -12 0
-13 -24 -7 -149 7 -145 7 -149 -14 -160 -25 -14 -28 -33 -4 -29 20 4 34 -48
26 -100 -6 -35 -32 -53 -95 -67 -16 -3 -28 -11 -28 -19 0 -20 -40 -66 -66 -76
-29 -11 -50 -52 -57 -107 -2 -24 -10 -50 -18 -59 -11 -14 -10 -18 6 -30 17
-13 18 -16 5 -24 -8 -5 -11 -12 -7 -16 4 -4 0 -18 -8 -31 -15 -22 -14 -26 11
-58 30 -40 39 -42 74 -15 30 23 40 25 40 6 0 -8 7 -16 15 -20 31 -11 15 -27
-20 -20 -30 5 -34 4 -29 -10 3 -8 9 -15 12 -14 13 2 72 -24 72 -32 0 -4 -7
-11 -16 -14 -8 -3 -13 -10 -9 -16 3 -5 0 -18 -7 -29 -15 -25 6 -55 35 -47 28
7 68 -11 74 -34 3 -11 14 -20 24 -20 10 0 21 -5 25 -11 3 -6 14 -9 24 -6 19 5
32 -13 26 -35 -1 -7 -1 -10 1 -5 7 10 28 9 58 -5 37 -17 31 -31 -10 -24 -27 5
-35 4 -35 -7 0 -8 14 -17 32 -21 17 -3 38 -15 46 -27 9 -13 21 -19 33 -16 11
3 22 1 25 -4 3 -5 14 -9 25 -9 21 0 23 -8 10 -29 -5 -8 -16 -11 -30 -6 -22 7
-22 6 -5 -14 16 -19 20 -19 35 -5 15 14 18 13 33 -8 9 -12 16 -28 16 -35 0 -7
11 -13 24 -13 18 0 27 -8 35 -31 10 -29 14 -31 46 -26 28 5 37 2 45 -13 8 -15
17 -18 40 -13 25 5 30 2 30 -15 0 -24 21 -33 59 -26 23 5 32 2 40 -15 8 -14
21 -21 41 -21 16 0 32 -4 35 -10 3 -5 18 -10 32 -10 13 0 38 -8 54 -17 25 -15
33 -15 50 -5 15 10 24 10 34 2 19 -15 56 -3 48 16 -3 8 1 14 11 14 15 0 20 11
17 36 -3 25 25 35 54 20 27 -14 55 -12 55 4 0 5 -6 11 -12 13 -8 3 -6 6 5 6
11 1 17 9 17 23 0 32 38 70 60 58 25 -14 103 94 95 132 -5 23 -4 26 14 21 26
-7 26 -3 0 41 -12 20 -17 36 -11 36 13 0 28 40 52 140 31 125 40 150 57 150 8
0 44 -13 80 -30 72 -33 77 -35 67 -18 -5 8 2 9 24 5 45 -9 40 0 -15 26 -52 24
-143 83 -183 117 -23 20 -23 23 -7 35 9 7 17 20 17 29 0 9 5 16 10 16 6 0 10
-8 10 -17 0 -9 3 -14 6 -11 3 4 -1 26 -10 51 -18 54 -18 95 -1 167 18 71 24
145 15 161 -5 7 -1 23 7 36 9 13 13 26 9 30 -3 3 -2 11 4 17 5 7 5 27 0 51 -5
22 -6 79 -3 127 5 72 8 85 18 71 14 -18 16 -15 35 45 7 23 19 42 27 42 7 0 13
4 13 10 0 5 12 13 26 16 17 4 23 11 19 22 -5 12 -3 13 10 2 9 -7 15 -9 13 -4
-2 5 2 9 7 9 6 0 9 -3 8 -7 -2 -5 2 -8 8 -8 6 0 8 9 4 20 -12 37 23 36 55 -1
27 -33 29 -33 47 -16 20 17 93 24 93 8 0 -16 58 -33 120 -35 40 -1 64 -7 70
-16 6 -10 12 -11 22 -3 7 6 31 11 53 11 22 0 53 6 69 12 29 11 66 6 66 -10 0
-4 12 -11 28 -15 33 -8 37 -8 37 4 0 5 3 13 8 17 4 4 7 3 7 -3 0 -7 17 -9 45
-5 40 4 46 2 54 -19 8 -20 10 -21 16 -7 5 12 17 16 41 15 19 -1 34 -6 34 -11
0 -5 18 -6 39 -2 23 3 52 1 68 -6 35 -14 39 -15 62 -17 11 0 27 -8 36 -17 11
-11 37 -16 90 -18 52 -1 75 -5 75 -13 0 -16 10 -16 51 1 19 7 56 14 83 15 27
0 54 5 59 10 5 5 15 7 23 4 7 -2 19 5 26 16 15 24 38 28 38 6 0 -14 20 -19 82
-19 12 0 16 -8 15 -33 -2 -23 -7 -33 -19 -33 -10 0 -19 -11 -23 -31 -8 -34 1
-51 15 -29 5 8 18 15 28 16 17 1 18 -2 9 -30 -5 -17 -14 -41 -20 -53 -5 -11
-7 -27 -4 -35 2 -7 -4 -28 -15 -45 -18 -30 -18 -33 -3 -33 13 0 15 -5 10 -17
-11 -25 -57 -233 -79 -359 -2 -11 -11 -36 -18 -55 -31 -72 -42 -164 -30 -231
6 -35 9 -81 5 -102 -4 -28 -2 -42 8 -50 8 -6 20 -23 26 -38 8 -18 17 -26 28
-22 13 5 13 2 0 -35 -8 -23 -10 -41 -5 -41 14 0 12 -48 -4 -95 -8 -24 -26 -48
-44 -60 -17 -11 -29 -26 -27 -33 3 -7 -2 -29 -10 -48 l-14 -34 27 7 c24 6 26
5 13 -10 -7 -9 -11 -30 -9 -46 3 -20 -1 -32 -14 -40 -23 -14 -14 -34 11 -26
24 7 51 -4 51 -20 0 -13 29 -13 93 0 21 4 77 -47 77 -71 0 -11 4 -12 19 -5 24
13 31 5 31 -38 1 -29 2 -33 11 -19 12 22 39 23 39 2 0 -10 7 -14 23 -12 15 2
22 -2 22 -14 0 -9 3 -20 7 -24 4 -4 -2 -18 -12 -32 -24 -29 -26 -50 -5 -32 12
10 15 10 15 0 0 -8 8 -22 17 -32 14 -15 14 -21 4 -27 -10 -7 -10 -9 2 -14 19
-7 11 -84 -10 -106 -8 -8 -13 -21 -10 -30 2 -9 -2 -22 -10 -29 -19 -18 -16
-32 7 -32 23 0 27 -15 5 -24 -25 -9 -17 -26 13 -26 29 0 34 -6 61 -73 6 -15
15 -27 20 -27 5 0 16 -7 24 -15 13 -13 18 -12 39 4 17 15 27 17 42 9 13 -7 16
-7 12 1 -4 6 -2 11 3 11 6 0 11 -8 11 -17 1 -12 6 -7 15 12 12 27 13 28 14 8
1 -23 31 -34 31 -11 0 6 3 8 7 5 3 -4 12 -2 20 4 10 9 13 8 13 -5 0 -24 12
-20 43 15 15 17 27 26 27 20 0 -23 19 -10 23 17 4 25 4 25 6 -5 1 -29 4 -33
29 -32 15 0 21 3 15 6 -7 2 -13 15 -13 28 0 28 40 41 71 24 15 -8 24 -8 32 0
16 16 27 13 27 -8 0 -10 7 -22 16 -25 13 -5 14 -9 4 -21 -10 -12 -10 -15 3
-15 9 0 19 9 22 20 3 11 12 20 20 20 7 0 16 6 18 13 3 6 6 -2 6 -20 1 -33 -27
-60 -52 -50 -21 8 -59 -12 -54 -28 4 -9 1 -12 -9 -8 -21 8 -17 -6 9 -28 20
-18 21 -20 5 -29 -31 -19 -21 -33 17 -27 22 4 35 2 35 -5 0 -33 127 31 132 66
2 11 9 21 16 24 11 3 11 0 0 -19 -22 -41 -49 -67 -79 -79 -37 -16 -37 -25 2
-39 25 -8 34 -8 46 4 8 8 18 15 23 15 11 0 60 48 60 58 0 4 19 28 41 52 23 25
39 39 35 32 -9 -16 6 -16 22 0 10 10 15 10 22 -2 11 -17 14 -14 28 25 l10 30
1 -27 c1 -28 21 -40 21 -13 0 8 4 15 8 15 5 0 9 14 10 31 1 34 17 59 38 59 8
0 14 5 14 10 0 6 7 10 15 10 8 0 15 -8 15 -17 1 -17 1 -17 11 0 8 14 8 22 0
30 -16 16 -14 37 4 37 9 0 15 -9 15 -21 0 -27 24 -19 28 9 2 12 7 22 12 22 4
0 11 10 15 23 6 22 7 21 21 -23 5 -13 6 -13 14 0 7 11 9 5 9 -20 -1 -19 -3
-27 -6 -18 -6 25 -22 22 -35 -7 -7 -16 -8 -29 -1 -37 5 -7 9 -34 8 -61 0 -26
3 -47 7 -47 4 0 8 6 8 14 0 7 7 19 15 26 19 16 19 40 0 40 -8 0 -15 5 -15 10
0 6 7 10 15 10 8 0 16 8 17 18 4 52 7 72 16 120 8 45 32 95 32 66 0 -5 11 -9
25 -9 17 0 25 5 25 18 0 10 7 20 15 23 8 4 15 15 15 26 0 25 19 43 45 43 15 0
19 6 18 22 -2 13 2 23 7 23 6 0 10 -4 10 -9 0 -14 39 -9 44 6 3 7 13 13 22 13
10 0 14 6 11 14 -3 8 5 18 19 25 14 6 23 7 19 2 -3 -5 0 -13 6 -16 6 -4 13 2
16 14 6 24 33 29 33 6 0 -8 5 -15 11 -15 7 0 9 10 5 25 -5 20 -3 25 13 25 11
0 24 7 29 17 13 22 42 9 42 -20 0 -16 6 -23 20 -23 14 0 19 5 15 15 -3 7 2 25
11 38 11 17 13 28 6 35 -7 7 -7 18 0 34 11 24 28 33 28 14 0 -5 9 -10 19 -10
14 0 24 13 37 45 9 25 24 50 33 56 12 7 13 12 4 15 -10 4 -9 9 2 21 8 8 15 26
16 41 1 36 32 88 51 84 19 -3 31 47 16 66 -8 9 -8 16 0 24 14 14 26 -13 26
-59 0 -18 2 -33 6 -33 3 0 16 16 30 35 14 19 30 33 37 30 7 -2 15 1 19 6 3 6
17 8 31 4 29 -7 28 -5 -29 70 -20 28 -45 69 -54 90 -9 22 -25 52 -36 67 -10
16 -17 32 -13 37 3 5 -4 16 -16 25 -19 13 -20 18 -9 31 7 8 10 18 6 22 -3 3
-6 1 -6 -5 0 -7 -6 -12 -14 -12 -12 0 -19 12 -41 75 -5 13 -9 15 -12 8 -6 -17
-23 -16 -23 1 0 10 -7 12 -22 8 -13 -3 -19 -1 -15 6 8 11 -41 52 -113 97 -59
36 -72 53 -59 76 6 13 6 19 -1 19 -5 0 -10 18 -10 40 0 48 13 52 30 10 15 -37
35 -53 25 -20 -4 12 -3 25 3 29 7 4 7 24 0 61 -5 30 -11 68 -13 83 -2 15 -8
33 -13 40 -5 7 -12 35 -15 62 -3 28 -10 75 -16 105 -8 39 -8 63 0 81 7 19 6
36 -4 67 -14 40 -14 41 14 68 15 14 32 23 38 20 6 -4 11 -2 11 4 0 6 7 10 16
8 9 -2 21 6 28 17 6 11 21 29 32 41 12 11 27 31 34 43 6 13 14 20 17 17 3 -3
11 1 17 9 6 9 31 19 55 23 25 4 46 13 49 20 2 7 -2 10 -10 7 -9 -4 -17 9 -24
40 -9 40 -8 45 7 45 10 0 20 -8 22 -17 3 -10 5 5 6 34 0 28 -3 55 -9 58 -5 3
-10 11 -10 16 0 6 5 7 10 4 7 -4 10 8 8 33 -2 22 -7 40 -11 39 -5 -1 -13 7
-17 19 -7 18 -5 20 14 17 22 -5 23 -2 22 74 l-1 78 -45 2 c-25 0 -60 2 -77 2
l-33 1 0 115 0 115 213 1 c116 1 219 1 228 0 20 -2 49 40 50 71 l0 23 9 -22
c11 -26 30 -31 30 -8 0 27 -40 137 -79 220 -53 111 -78 165 -90 198 -6 15 -15
27 -20 27 -6 0 -8 7 -4 16 5 14 -14 71 -40 119 -14 26 -45 89 -57 118 -6 12
-19 36 -29 52 -27 42 -25 51 4 24 13 -13 37 -49 52 -79 14 -30 37 -69 50 -86
12 -17 28 -46 34 -65 7 -19 22 -45 35 -59 12 -14 30 -45 39 -70 32 -84 77
-169 88 -167 7 1 11 -5 9 -14 -1 -9 5 -19 13 -23 11 -4 14 -13 9 -31 -5 -20
-3 -24 10 -19 10 4 16 1 16 -7 0 -7 2 -10 5 -7 5 5 2 23 -27 168 -7 32 -21 65
-35 79 -25 26 -32 51 -8 31 18 -15 19 -7 4 21 -6 11 -12 28 -14 37 -2 9 -6 29
-10 43 -13 53 13 37 39 -24 36 -81 44 -98 62 -121 14 -20 14 -20 28 0 12 15
12 23 2 39 -23 38 -36 75 -26 75 6 0 10 -6 10 -13 0 -8 11 -19 25 -25 24 -11
25 -11 15 9 -11 20 1 79 22 106 5 7 7 16 4 21 -3 6 1 15 9 22 8 7 12 16 9 21
-3 5 -2 15 3 22 4 6 8 28 8 47 0 23 4 34 13 33 18 -4 15 11 -17 77 -15 33 -24
60 -20 60 4 0 13 -8 18 -17 17 -30 12 5 -6 40 -9 18 -17 43 -19 57 -1 14 -16
59 -34 100 -17 41 -40 99 -52 128 -11 30 -35 81 -54 114 -19 33 -37 71 -40 84
-3 13 -10 22 -14 19 -18 -11 -86 107 -74 127 4 6 0 14 -7 19 -11 7 -11 9 -1 9
9 0 11 7 7 19 -4 12 0 21 11 25 13 5 15 9 6 18 -14 14 -16 28 -3 28 5 0 19
-33 31 -72 25 -82 50 -138 63 -138 10 0 0 37 -19 67 -8 12 -14 30 -14 40 0 27
-85 272 -98 285 -7 7 -12 23 -12 38 0 14 -14 52 -30 85 -16 33 -30 67 -30 75
0 8 -6 27 -14 41 -7 14 -16 43 -20 65 -4 21 -13 48 -20 59 -8 11 -17 36 -21
55 -4 19 -13 48 -20 65 -46 108 -74 185 -80 218 -3 20 -9 37 -13 37 -20 0 -72
155 -87 262 -6 42 -40 124 -55 133 -6 3 -7 -1 -4 -9 3 -9 1 -16 -5 -16 -6 0
-15 15 -21 33 -7 24 -9 -5 -6 -113 2 -80 8 -157 14 -172 6 -15 7 -30 2 -33 -4
-3 -11 1 -13 7 -3 7 -6 -9 -6 -36 -1 -64 -7 -56 -15 19 -12 108 -28 200 -38
218 -5 10 -17 16 -26 15 -14 -2 -17 5 -16 40 0 30 -3 42 -14 42 -11 0 -13 -10
-8 -47 4 -27 9 -56 12 -65 3 -10 1 -18 -4 -18 -6 0 -13 18 -16 40 -3 22 -9 59
-12 82 -6 38 -5 41 9 30 21 -17 29 -1 17 34 -5 16 -16 74 -25 129 -19 113 -22
122 -56 138 -13 7 -29 28 -35 47 -6 19 -28 54 -48 77 -35 40 -46 60 -26 48 6
-3 10 -1 10 4 0 6 -4 11 -10 11 -15 0 -12 30 3 30 6 0 3 6 -8 12 -11 6 -48 39
-83 74 -50 50 -70 64 -105 69 -23 4 -55 14 -71 22 l-29 15 32 28 c21 19 27 30
19 33 -21 9 54 -4 90 -15 18 -5 36 -7 39 -4 4 3 -1 6 -10 6 -9 0 -20 6 -24 14
-4 7 -18 18 -30 25 -29 15 -29 28 -1 27 14 -1 24 6 26 17 3 13 -3 17 -28 17
-24 0 -31 4 -27 14 8 19 -22 29 -40 15 -11 -10 -15 -8 -20 10 -4 16 -10 20
-26 15 -18 -6 -19 -3 -14 35 3 22 2 41 -2 41 -4 0 -14 19 -21 41 -19 57 -73
125 -110 138 -35 12 -32 36 3 25 18 -5 20 -4 10 7 -15 15 -17 43 -3 34 6 -3
10 -1 10 4 0 6 -7 11 -15 11 -8 0 -15 4 -15 10 0 5 7 7 15 4 24 -9 18 12 -12
44 -33 35 -83 62 -115 62 -13 0 -30 5 -38 11 -11 8 -6 9 20 5 51 -9 26 9 -52
38 -73 26 -171 39 -286 38 -39 0 -87 4 -104 9 -21 5 -36 5 -42 -1 -6 -6 -19
-10 -30 -10 -18 0 -19 1 -3 13 14 10 1 12 -75 13 -98 1 -282 10 -384 19 -46 3
-64 1 -76 -11z m142 -54 c0 -5 -5 -10 -11 -10 -5 0 -7 5 -4 10 3 6 8 10 11 10
2 0 4 -4 4 -10z m-315 -60 c-3 -5 -16 -10 -28 -9 -20 1 -20 2 3 9 14 4 26 8
28 9 2 1 0 -3 -3 -9z m-615 -108 c0 -5 -19 -17 -42 -26 -24 -10 -58 -25 -77
-32 -18 -8 -35 -13 -37 -11 -9 9 30 32 89 52 34 12 63 23 65 24 1 0 2 -3 2 -7z
m236 -17 c-11 -8 -25 -15 -30 -15 -6 0 -2 7 8 15 11 8 25 15 30 15 6 0 2 -7
-8 -15z m-146 -55 c0 -5 -4 -10 -10 -10 -5 0 -10 5 -10 10 0 6 5 10 10 10 6 0
10 -4 10 -10z m-274 -15 c-11 -8 -25 -15 -30 -15 -6 0 -2 7 8 15 11 8 25 15
30 15 6 0 2 -7 -8 -15z m199 -25 c-3 -5 -13 -10 -21 -10 -8 0 -12 5 -9 10 3 6
13 10 21 10 8 0 12 -4 9 -10z m251 -5 c-23 -17 -36 -19 -36 -6 0 5 8 12 18 14
32 9 37 6 18 -8z m-326 -20 c-7 -8 -20 -15 -30 -15 -10 0 -23 -7 -30 -15 -7
-8 -19 -15 -27 -15 -29 0 7 29 43 36 19 3 37 10 40 15 3 5 8 9 11 9 3 0 0 -7
-7 -15z m415 -5 c-3 -5 -11 -10 -16 -10 -6 0 -7 5 -4 10 3 6 11 10 16 10 6 0
7 -4 4 -10z m920 -118 c-6 -5 -32 -17 -58 -26 -26 -10 -60 -28 -75 -41 -15
-12 -43 -30 -62 -40 -19 -10 -63 -38 -97 -61 -35 -24 -65 -44 -68 -44 -14 0
-208 -136 -255 -179 -30 -28 -61 -51 -67 -51 -7 0 -13 -5 -13 -11 0 -5 -13
-15 -30 -20 -32 -12 -40 -29 -14 -29 14 0 14 -3 4 -15 -7 -9 -10 -18 -6 -22 3
-3 6 -1 6 5 0 14 37 35 50 27 12 -7 -20 -45 -39 -45 -8 0 -12 -3 -8 -6 3 -4
-1 -20 -9 -36 -11 -22 -13 -33 -5 -41 8 -8 11 -7 11 5 0 8 11 27 25 42 30 33
49 66 41 74 -7 7 43 62 57 62 4 0 -1 -12 -12 -27 -12 -14 -19 -29 -15 -32 9
-10 64 58 64 79 0 11 4 20 8 20 5 0 28 18 52 40 24 22 48 40 54 40 6 0 -2 -12
-17 -25 -16 -14 -30 -35 -32 -47 -3 -12 -14 -31 -24 -42 -11 -12 -46 -52 -77
-91 -75 -92 -166 -185 -181 -185 -6 0 -15 5 -18 10 -4 6 -3 10 2 9 21 -4 31 3
42 27 6 15 9 29 7 32 -3 3 -8 -3 -12 -12 -3 -9 -10 -13 -16 -10 -5 3 -2 16 7
30 29 45 -2 24 -51 -33 -27 -31 -62 -71 -77 -88 -16 -16 -36 -42 -45 -57 -9
-16 -23 -28 -31 -28 -16 0 -10 8 69 93 25 27 49 56 54 65 5 9 12 19 16 22 3 3
18 21 33 41 24 31 25 38 13 49 -13 10 -13 15 1 36 32 50 4 32 -70 -45 -43 -44
-82 -93 -88 -110 -7 -20 -18 -31 -30 -31 -23 0 -24 8 -2 32 9 10 12 18 7 18
-14 0 -204 -194 -204 -208 0 -7 -1 -12 -3 -12 -1 0 -17 -4 -35 -9 l-33 -10 53
61 c29 34 61 71 70 82 64 79 369 373 432 416 12 8 37 31 56 50 61 62 111 90
90 50 -6 -11 -15 -18 -20 -15 -6 3 -7 -1 -4 -9 4 -12 0 -16 -15 -16 -12 0 -25
-8 -28 -17 -4 -10 -11 -21 -16 -24 -5 -4 -6 -12 -3 -18 5 -8 23 2 54 27 26 22
65 52 87 67 37 25 38 27 12 23 -22 -4 -25 -3 -16 8 20 24 125 90 170 108 l44
16 -24 -20 c-13 -11 -29 -20 -36 -20 -7 0 -15 -7 -19 -15 -3 -8 0 -15 7 -15
11 1 147 85 173 109 7 5 14 7 18 4 3 -3 20 4 38 16 34 21 23 29 -15 10 -22
-10 -22 -10 -2 6 11 9 29 14 40 11 11 -3 38 1 60 9 47 16 63 19 50 7z m-1240
-12 c-3 -5 -16 -15 -28 -21 -19 -9 -19 -8 3 10 28 23 34 26 25 11z m797 -45
c-2 -14 -9 -25 -14 -25 -5 0 -6 5 -2 12 5 7 2 9 -7 6 -31 -12 -294 -185 -407
-267 -25 -19 -54 -34 -63 -35 -23 -1 -71 -44 -64 -56 3 -5 -5 -14 -17 -21 -13
-7 -36 -27 -52 -46 -18 -21 -35 -32 -44 -28 -8 3 -22 -1 -31 -9 -20 -18 -71
-32 -71 -19 0 16 126 123 145 123 4 0 4 -7 1 -16 -3 -9 -2 -12 5 -9 5 4 7 15
4 26 -6 17 -2 20 20 19 3 0 15 9 27 20 12 11 61 45 110 77 48 31 88 60 88 65
0 4 5 8 11 8 5 0 29 15 53 33 23 17 96 59 162 91 98 49 137 69 150 75 1 1 -1
-10 -4 -24z m-97 -5 c-3 -5 -10 -10 -16 -10 -5 0 -9 5 -9 10 0 6 7 10 16 10 8
0 12 -4 9 -10z m-1141 -41 c-36 -38 -39 -37 -12 5 13 19 26 32 31 29 5 -3 -4
-18 -19 -34z m346 27 c0 -3 -4 -8 -10 -11 -5 -3 -10 -1 -10 4 0 6 5 11 10 11
6 0 10 -2 10 -4z m730 -13 c-8 -3 -17 -9 -20 -13 -7 -8 -94 -50 -105 -50 -13
0 33 32 75 52 19 9 42 16 50 16 13 0 13 0 0 -5z m344 -7 c-10 -8 -21 -12 -24
-10 -5 6 21 24 34 24 6 0 1 -6 -10 -14z m-1124 -30 c0 -2 -7 -7 -16 -10 -8 -3
-12 -2 -9 4 6 10 25 14 25 6z m-370 -36 c-24 -19 -40 -25 -40 -15 0 5 51 34
60 34 3 0 -6 -8 -20 -19z m975 -20 c-10 -11 -21 -17 -24 -14 -3 3 3 12 13 20
28 20 32 17 11 -6z m1690 10 c3 -5 -1 -10 -9 -10 -8 0 -18 5 -21 10 -3 6 1 10
9 10 8 0 18 -4 21 -10z m-2739 -58 c-3 -6 -34 -34 -68 -63 -72 -62 -60 -37 16
33 46 42 68 55 52 30z m2050 9 c9 7 27 9 51 3 21 -4 43 -6 48 -5 31 9 86 2
101 -13 9 -10 23 -15 31 -12 7 3 16 0 19 -8 3 -9 20 -13 50 -12 52 2 88 -9 79
-25 -4 -6 2 -13 13 -16 13 -3 18 -11 15 -19 -3 -9 2 -14 16 -14 22 0 28 -14
11 -25 -16 -10 -12 -22 10 -28 11 -3 20 0 20 6 0 9 2 9 8 0 4 -6 16 -11 27
-10 15 2 21 -6 25 -33 10 -56 39 -100 68 -100 9 0 8 7 -4 25 -9 14 -14 28 -11
32 13 12 50 -43 52 -77 0 -8 7 -14 14 -12 21 4 42 -19 35 -40 -4 -13 5 -28 31
-53 31 -28 38 -41 39 -77 1 -24 6 -49 10 -56 4 -7 5 -20 2 -28 -3 -8 3 -23 14
-34 26 -26 25 -33 -2 -24 l-23 6 23 -20 c14 -12 20 -26 16 -36 -4 -10 1 -25
11 -36 16 -18 16 -20 2 -26 -13 -5 -15 -16 -11 -56 3 -28 9 -58 14 -68 5 -9 6
-26 3 -38 -3 -14 -1 -22 8 -22 7 0 9 -3 6 -7 -4 -3 3 -13 15 -21 18 -13 19
-17 6 -26 -9 -6 -19 -30 -23 -54 -4 -23 -10 -40 -14 -38 -4 3 -6 -19 -3 -49 2
-30 0 -68 -6 -84 -7 -21 -8 -31 -1 -31 6 0 8 -4 5 -9 -3 -5 -8 -55 -10 -111
-3 -57 -10 -108 -15 -113 -6 -6 -11 -20 -11 -30 0 -10 -9 -21 -19 -24 -18 -5
-32 -47 -35 -103 -1 -17 -37 -80 -46 -80 -12 0 -119 112 -125 130 -8 24 -101
86 -140 93 -16 3 -64 15 -105 26 -148 39 -234 53 -309 52 -122 -2 -155 -7
-184 -26 l-27 -17 27 -24 c15 -12 30 -21 34 -18 4 2 7 -4 6 -15 -1 -23 -37
-37 -37 -15 0 8 -7 14 -15 14 -8 0 -15 -4 -15 -10 0 -18 44 -33 100 -34 30 -1
60 -4 65 -8 6 -3 42 -6 82 -7 39 0 83 -5 98 -11 15 -6 30 -8 34 -6 4 3 59 1
123 -4 120 -9 188 -28 188 -54 0 -8 20 -31 44 -51 24 -19 49 -50 56 -68 6 -18
17 -41 23 -52 6 -11 12 -66 13 -122 1 -56 5 -106 8 -111 7 -11 -1 -361 -10
-442 -3 -30 -6 -69 -7 -86 0 -22 -5 -30 -14 -27 -7 3 -13 0 -13 -6 0 -6 5 -11
11 -11 7 0 5 -10 -5 -25 -10 -16 -15 -35 -11 -48 4 -15 3 -18 -3 -9 -7 10 -11
10 -22 -3 -7 -8 -9 -15 -6 -15 4 0 -5 -11 -19 -26 -19 -19 -23 -29 -15 -43 11
-21 -4 -86 -23 -98 -16 -11 -48 -73 -42 -83 3 -4 -2 -13 -10 -20 -8 -7 -15
-20 -15 -29 -1 -21 -66 -91 -86 -91 -10 0 -14 -6 -11 -14 6 -16 -32 -46 -58
-46 -8 0 -15 -9 -15 -20 0 -11 -7 -23 -16 -27 -8 -3 -13 -11 -10 -18 3 -8 -2
-16 -10 -19 -10 -4 -13 -13 -9 -26 5 -16 2 -20 -14 -20 -27 0 -27 -21 -1 -38
11 -7 20 -18 20 -25 0 -7 -3 -8 -8 -2 -4 6 -16 11 -27 12 l-20 2 20 -16 c14
-11 16 -17 7 -20 -10 -4 -10 -8 -1 -19 10 -12 8 -19 -9 -35 -12 -11 -22 -23
-22 -28 0 -4 -8 -16 -18 -27 -10 -10 -26 -40 -36 -66 -10 -27 -24 -48 -32 -48
-8 0 -14 -7 -14 -15 0 -17 -34 -38 -45 -27 -4 4 -5 0 -3 -8 1 -9 -13 -31 -32
-50 -19 -19 -35 -37 -35 -40 0 -3 -10 -15 -22 -27 -13 -13 -23 -28 -23 -33 0
-6 -6 -10 -14 -8 -8 2 -15 -1 -15 -7 0 -5 -10 -13 -23 -16 -13 -3 -22 -11 -20
-18 1 -6 -9 -16 -22 -21 -13 -5 -26 -14 -28 -21 -2 -7 -18 -14 -34 -15 -16 -1
-32 -3 -36 -3 -5 -1 -8 -8 -8 -16 0 -9 -9 -15 -21 -15 -12 0 -41 -13 -66 -30
-49 -33 -59 -36 -66 -17 -4 8 -6 6 -6 -4 -1 -9 -10 -24 -22 -35 -17 -16 -22
-16 -30 -4 -7 12 -10 13 -18 2 -4 -8 -17 -12 -27 -10 -11 2 -36 -7 -57 -19
-21 -13 -51 -25 -66 -26 -16 -1 -27 -7 -24 -13 5 -14 -22 -27 -57 -27 -17 0
-24 4 -22 15 1 10 -8 18 -29 22 -25 5 -39 1 -65 -19 -18 -14 -37 -25 -43 -25
-5 0 -50 -20 -100 -45 -50 -25 -97 -45 -105 -45 -8 0 -17 -4 -20 -9 -8 -12
-53 -20 -156 -28 -164 -13 -147 -18 -385 97 -33 16 -80 36 -105 45 -77 29
-112 48 -180 98 -97 72 -145 130 -206 252 -30 61 -64 119 -75 131 -10 11 -19
24 -19 30 -1 5 -21 29 -45 54 -25 25 -48 54 -51 65 -4 10 -13 25 -20 33 -8 7
-14 22 -14 32 0 10 -4 21 -9 24 -4 3 -11 19 -14 35 -3 16 -14 36 -23 46 -11
10 -19 36 -20 63 -2 25 -7 48 -12 51 -14 9 -42 68 -42 88 0 10 -12 54 -26 97
-14 43 -23 81 -20 84 3 3 0 12 -7 20 -13 16 -15 207 -4 311 20 178 38 257 77
325 11 21 18 41 15 46 -3 5 11 43 30 85 19 43 35 84 35 91 0 8 4 14 8 14 5 0
14 30 21 68 11 66 18 84 60 172 11 25 21 50 21 55 0 6 9 16 20 23 11 7 20 17
20 23 0 13 32 56 85 113 22 23 49 53 61 67 11 13 48 49 82 79 34 30 62 60 62
67 0 25 120 37 143 14 6 -6 20 -11 32 -11 12 0 30 -7 41 -15 10 -8 26 -15 34
-15 9 0 33 -9 55 -20 22 -11 54 -20 72 -20 17 0 35 -4 38 -10 3 -5 15 -10 26
-10 10 0 18 -3 18 -7 -3 -19 3 -21 33 -13 34 10 125 -10 163 -36 33 -24 68
-17 87 16 9 17 23 30 30 30 19 0 55 -63 40 -68 -32 -10 11 -52 53 -52 8 0 37
-13 65 -30 53 -32 70 -36 70 -20 0 5 7 7 16 3 14 -5 16 -2 10 23 -10 43 -72
131 -132 191 -51 50 -114 92 -114 76 1 -11 26 -43 34 -43 10 0 36 -26 36 -36
0 -4 6 -12 13 -18 8 -6 24 -29 37 -51 l23 -40 -27 28 c-15 15 -31 27 -36 27
-6 0 -10 7 -10 15 0 8 -5 15 -12 15 -18 0 -47 31 -42 45 3 8 -7 15 -30 19 -20
4 -36 11 -36 16 0 21 -148 69 -238 77 -62 6 -67 27 -6 29 81 3 82 3 59 16 -23
14 -197 17 -240 4 -24 -7 -28 -6 -18 4 12 13 7 40 -8 40 -5 0 -8 -3 -7 -7 2
-5 -1 -9 -7 -10 -49 -13 77 122 208 221 53 40 111 34 204 -22 38 -23 75 -42
83 -42 18 0 209 -128 235 -157 18 -21 24 -22 68 -12 26 6 48 16 48 22 9 79 -5
106 -74 142 -23 12 -59 32 -81 44 -21 12 -68 33 -103 46 -35 14 -77 34 -93 45
-15 11 -33 20 -39 20 -6 0 -8 7 -5 15 4 8 -1 17 -10 21 -23 9 -20 40 7 61 12
10 40 38 61 63 56 65 145 166 190 216 21 24 45 44 52 44 8 0 19 9 26 20 7 11
17 20 21 20 11 0 37 26 37 37 1 28 192 199 211 187 6 -3 19 2 29 11 10 9 24
14 29 10 6 -3 11 0 11 8 0 14 23 30 46 32 18 1 64 27 64 37 0 4 11 8 25 8 14
0 25 4 25 8 0 16 122 72 156 72 18 0 53 9 77 19 25 11 48 17 51 14 3 -4 15 2
26 12 25 23 74 30 66 9 -7 -19 3 -18 39 5 17 10 32 14 33 9 2 -5 10 -4 18 3z
m-550 -29 c-8 -14 -86 -65 -91 -61 -7 8 10 26 45 48 36 22 55 27 46 13z
m-1066 -32 c0 -5 -5 -10 -11 -10 -5 0 -7 5 -4 10 3 6 8 10 11 10 2 0 4 -4 4
-10z m420 -24 c0 -2 -7 -6 -15 -10 -8 -3 -15 -1 -15 4 0 6 7 10 15 10 8 0 15
-2 15 -4z m-65 -26 c-3 -5 -14 -10 -23 -10 -15 0 -15 2 -2 10 20 13 33 13 25
0z m-950 -50 c-16 -16 -31 -28 -34 -25 -2 3 8 19 24 35 16 16 31 28 34 25 2
-3 -8 -19 -24 -35z m3007 1 c5 -4 -8 -5 -27 -3 -19 2 -35 9 -35 14 0 11 49 2
62 -11z m-1988 -78 c-102 -95 -158 -142 -161 -139 -8 8 21 44 46 59 14 8 45
33 68 54 40 37 73 61 83 62 3 1 -13 -16 -36 -36z m-219 7 c-3 -5 -16 -15 -28
-21 -21 -10 -21 -9 2 10 25 23 36 27 26 11z m-1109 -48 c-27 -40 -86 -100 -71
-72 20 35 88 120 93 115 3 -2 -7 -22 -22 -43z m135 -3 c-6 -13 -20 -35 -31
-49 -17 -21 -16 -16 6 28 26 52 44 67 25 21z m1219 1 c0 -5 -5 -10 -11 -10 -5
0 -7 5 -4 10 3 6 8 10 11 10 2 0 4 -4 4 -10z m-200 -54 c0 -2 -8 -10 -17 -17
-16 -13 -17 -12 -4 4 13 16 21 21 21 13z m-126 -43 c3 -4 -8 -12 -26 -17 -17
-6 -34 -18 -36 -26 -4 -11 1 -11 22 4 48 31 38 11 -18 -37 -70 -60 -103 -66
-53 -9 79 89 94 101 111 85z m-1134 -27 c0 -3 -4 -8 -10 -11 -5 -3 -10 -1 -10
4 0 6 5 11 10 11 6 0 10 -2 10 -4z m1175 -6 c-3 -5 -10 -10 -16 -10 -5 0 -9 5
-9 10 0 6 7 10 16 10 8 0 12 -4 9 -10z m55 -5 c-7 -9 -27 -25 -44 -36 -28 -19
-28 -18 6 15 38 36 61 49 38 21z m50 11 c0 -3 -4 -8 -10 -11 -5 -3 -10 -1 -10
4 0 6 5 11 10 11 6 0 10 -2 10 -4z m50 -6 c0 -5 -5 -10 -11 -10 -5 0 -7 5 -4
10 3 6 8 10 11 10 2 0 4 -4 4 -10z m-1400 -76 c0 -4 -13 -22 -30 -41 -16 -18
-30 -38 -30 -42 0 -5 -8 -11 -18 -13 -17 -5 -17 -2 -8 18 6 13 21 29 33 35 13
7 25 20 29 31 5 17 24 26 24 12z m1194 -22 c-16 -15 -31 -26 -34 -24 -5 4 47
52 57 52 3 0 -7 -12 -23 -28z m456 19 c0 -14 -29 -41 -43 -41 -8 0 -9 3 -1 8
6 4 13 15 17 25 7 18 27 24 27 8z m-110 -25 c0 -2 -8 -10 -17 -17 -16 -13 -17
-12 -4 4 13 16 21 21 21 13z m-107 -61 c-23 -18 -33 -19 -33 -1 0 7 10 20 23
29 19 13 22 13 25 0 2 -8 -5 -21 -15 -28z m133 -3 c-18 -16 -18 -16 -6 6 6 13
14 21 18 18 3 -4 -2 -14 -12 -24z m-346 -34 l-43 -43 38 48 c21 26 40 45 43
43 3 -3 -15 -25 -38 -48z m2545 -54 c20 -71 14 -95 -8 -30 -16 47 -22 86 -13
86 3 0 12 -25 21 -56z m-2314 8 c-5 -9 -19 -26 -32 -37 -26 -23 -17 -2 14 33
25 27 31 28 18 4z m-246 -61 c-3 -6 -11 -11 -17 -11 -6 0 -6 6 2 15 14 17 26
13 15 -4z m-75 -67 c-8 -8 -23 -20 -34 -26 -18 -10 -17 -7 4 15 27 28 51 38
30 11z m2417 -16 c-3 -8 -6 -5 -6 6 -1 11 2 17 5 13 3 -3 4 -12 1 -19z m413
-70 c0 -16 -3 -19 -11 -11 -6 6 -8 16 -5 22 11 17 16 13 16 -11z m-113 -80
c-3 -7 -5 -2 -5 12 0 14 2 19 5 13 2 -7 2 -19 0 -25z m120 10 c-3 -8 -6 -5 -6
6 -1 11 2 17 5 13 3 -3 4 -12 1 -19z m-150 -40 c-3 -7 -5 -2 -5 12 0 14 2 19
5 13 2 -7 2 -19 0 -25z m-2988 -22 c-10 -9 -69 -36 -69 -32 0 7 52 35 64 36 5
0 7 -2 5 -4z m3035 -51 c-4 -8 -8 -15 -10 -15 -2 0 -4 7 -4 15 0 8 4 15 10 15
5 0 7 -7 4 -15z m-264 -45 c0 -5 -4 -10 -10 -10 -5 0 -10 5 -10 10 0 6 5 10
10 10 6 0 10 -4 10 -10z m408 -75 c-3 -3 -9 2 -12 12 -6 14 -5 15 5 6 7 -7 10
-15 7 -18z m-1 -57 c13 -29 47 -113 63 -155 7 -19 17 -30 25 -27 8 3 14 -10
18 -41 4 -25 25 -84 47 -131 22 -47 40 -92 40 -101 0 -8 11 -36 25 -62 43 -81
77 -164 81 -195 6 -46 35 -135 45 -142 11 -6 12 -24 2 -24 -8 0 -12 6 -62 110
-17 36 -38 76 -47 90 -8 14 -24 45 -35 69 -24 54 -38 47 -16 -8 13 -32 14 -40
3 -44 -10 -4 -16 6 -21 30 -3 20 -17 60 -31 91 -13 30 -24 60 -24 66 0 7 -13
32 -28 57 -16 24 -33 62 -39 84 -6 22 -21 72 -33 110 -22 70 -38 137 -44 186
-2 14 -9 35 -15 46 -5 11 -8 23 -4 26 10 10 38 -10 50 -35z m103 -111 c0 -5
-4 -5 -10 -2 -5 3 -10 14 -10 23 0 15 2 15 10 2 5 -8 10 -19 10 -23z m-2750
-93 c0 -10 -7 -14 -22 -12 -32 5 -35 28 -4 28 17 0 26 -5 26 -16z m275 -150
c22 -14 36 -54 19 -54 -7 0 -29 25 -45 53 -12 21 -5 22 26 1z m2412 -36 c-3
-8 -6 -5 -6 6 -1 11 2 17 5 13 3 -3 4 -12 1 -19z m-4607 -297 c0 -5 -13 -19
-30 -31 -35 -25 -38 -20 -8 15 22 26 38 32 38 16z m4825 -91 c8 -16 15 -32 15
-37 0 -10 -25 27 -33 50 -10 27 1 20 18 -13z m-4790 -40 c3 -5 1 -10 -4 -10
-6 0 -11 5 -11 10 0 6 2 10 4 10 3 0 8 -4 11 -10z m-60 -93 c-4 -14 -13 -28
-20 -31 -11 -4 -12 0 -4 21 19 51 36 58 24 10z m-65 14 c0 -5 -7 -14 -15 -21
-12 -10 -15 -10 -15 2 0 8 3 18 7 21 9 10 23 9 23 -2z m5030 -11 c0 -5 -2 -10
-4 -10 -3 0 -8 5 -11 10 -3 6 -1 10 4 10 6 0 11 -4 11 -10z m-4910 -46 c0 -8
-4 -14 -9 -14 -11 0 -22 26 -14 34 9 9 23 -3 23 -20z m-150 1 c0 -8 -4 -15
-10 -15 -5 0 -7 7 -4 15 4 8 8 15 10 15 2 0 4 -7 4 -15z m5037 -17 c-3 -8 -6
-5 -6 6 -1 11 2 17 5 13 3 -3 4 -12 1 -19z m-5013 -107 c-3 -45 -11 -81 -16
-81 -8 0 -3 93 8 149 10 49 15 9 8 -68z m150 27 c4 -17 2 -28 -4 -28 -5 0 -10
14 -10 32 0 36 4 35 14 -4z m109 -5 c3 -16 -1 -32 -9 -40 -12 -12 -14 -8 -14
32 0 49 14 54 23 8z m-38 -25 c2 -18 4 -39 4 -46 1 -7 5 -11 10 -7 6 3 15 -4
21 -15 13 -23 30 -27 30 -5 0 8 5 15 10 15 6 0 8 -11 4 -26 -5 -20 -4 -25 5
-20 9 6 11 -6 9 -43 -3 -54 -18 -72 -18 -22 0 16 -3 36 -6 45 -12 32 -21 15
-20 -39 1 -39 5 -55 15 -55 9 0 11 -6 6 -17 -22 -52 -25 -94 -10 -129 19 -46
19 -58 0 -50 -8 3 -15 0 -15 -7 -1 -27 -31 52 -43 112 -18 90 -37 92 -38 4 -1
-97 -17 -139 -18 -50 -1 38 -6 78 -12 89 -10 18 -12 90 -6 207 2 32 27 59 27
29 1 -20 29 34 30 56 0 30 12 11 15 -26z m36 -481 c-13 -13 -15 1 -4 30 7 17
8 17 11 -1 2 -10 -1 -23 -7 -29z m4 -36 c3 -5 1 -12 -5 -16 -5 -3 -10 1 -10 9
0 18 6 21 15 7z m-388 -53 c-3 -7 -5 -2 -5 12 0 14 2 19 5 13 2 -7 2 -19 0
-25z m376 -13 c-3 -9 -8 -14 -10 -11 -3 3 -2 9 2 15 9 16 15 13 8 -4z m4672
-21 c9 -15 12 -23 6 -20 -11 7 -35 46 -28 46 3 0 12 -12 22 -26z m-5065 -80
c0 -8 -5 -12 -10 -9 -6 4 -8 11 -5 16 9 14 15 11 15 -7z m5130 -19 c14 -19 14
-19 -2 -6 -10 7 -18 18 -18 24 0 6 1 8 3 6 1 -2 9 -13 17 -24z m-1194 -123
c-8 -9 -19 -13 -22 -9 -10 9 16 38 28 31 6 -4 4 -13 -6 -22z m-3420 -37 c-26
-34 -45 -49 -29 -22 17 28 48 65 52 61 2 -2 -8 -19 -23 -39z m62 5 c-7 -10
-14 -17 -17 -15 -4 4 18 35 25 35 2 0 -1 -9 -8 -20z m4702 4 c0 -8 -4 -12 -10
-9 -5 3 -10 10 -10 16 0 5 5 9 10 9 6 0 10 -7 10 -16z m-190 -76 c17 -32 29
-58 26 -58 -6 0 -76 118 -76 128 0 13 19 -14 50 -70z m-5240 40 c0 -7 -10 -24
-21 -38 -11 -14 -18 -20 -15 -14 3 6 10 23 15 38 11 28 21 34 21 14z m4985
-28 c9 -16 11 -30 6 -30 -5 0 -14 14 -20 30 -5 17 -8 30 -6 30 3 0 11 -13 20
-30z m-4325 -48 c0 -17 -135 -191 -235 -303 -52 -58 -76 -64 -27 -6 8 9 13 17
10 17 -3 0 -43 -45 -88 -100 -44 -55 -84 -100 -86 -100 -12 0 107 183 143 219
12 13 23 34 23 46 0 13 6 25 13 28 8 3 40 40 72 84 68 90 103 126 116 118 5
-4 9 -2 9 3 0 5 11 7 25 4 14 -2 25 -7 25 -10z m4579 -57 c0 -5 -4 -3 -9 5 -5
8 -9 22 -9 30 0 16 17 -16 18 -35z m-183 -20 c38 -57 68 -145 44 -130 -13 8
-40 72 -40 94 0 9 -9 27 -20 41 -11 14 -20 29 -20 34 0 12 4 8 36 -39z m214
-40 c0 -5 -5 -3 -10 5 -5 8 -10 20 -10 25 0 6 5 3 10 -5 5 -8 10 -19 10 -25z
m61 -109 c12 -21 23 -55 25 -75 3 -20 12 -46 20 -59 8 -13 13 -29 11 -35 -4
-12 -57 96 -57 117 0 7 -9 29 -20 51 -22 42 -29 83 -9 55 5 -8 19 -33 30 -54z
m-195 -21 c-3 -8 -1 -16 5 -19 5 -2 4 -3 -3 -2 -7 1 -15 13 -16 25 -3 16 0 21
8 16 6 -4 9 -13 6 -20z m-4746 5 c0 -5 -5 -10 -11 -10 -5 0 -7 5 -4 10 3 6 8
10 11 10 2 0 4 -4 4 -10z m-144 -128 c-17 -16 -18 -16 -5 5 7 12 15 20 18 17
3 -2 -3 -12 -13 -22z m404 -66 c0 -3 -4 -8 -10 -11 -5 -3 -10 -1 -10 4 0 6 5
11 10 11 6 0 10 -2 10 -4z m-628 -56 c-12 -12 -22 -18 -22 -14 0 12 33 45 38
39 3 -3 -4 -14 -16 -25z m5343 -20 c3 -5 1 -10 -4 -10 -6 0 -11 5 -11 10 0 6
2 10 4 10 3 0 8 -4 11 -10z m-4743 -27 c-7 -3 -30 -21 -51 -41 -22 -21 -55
-45 -73 -55 -20 -11 -26 -13 -14 -3 10 8 39 34 64 58 46 43 73 60 82 50 3 -2
-1 -7 -8 -9z m17 -50 c-11 -17 -112 -94 -134 -102 -5 -2 -20 -13 -33 -24 -12
-12 -29 -22 -38 -23 -10 -2 -6 6 11 22 14 13 26 23 28 23 1 -1 19 15 40 35 21
20 43 36 48 36 5 0 22 11 37 25 32 30 58 35 41 8z m-573 -90 c-11 -11 -17 4
-9 23 7 18 8 18 11 1 2 -10 1 -21 -2 -24z m-25 -96 c-8 -8 -11 -7 -11 4 0 20
13 34 18 19 3 -7 -1 -17 -7 -23z m-20 -19 c3 -22 1 -42 -7 -66 -5 -18 -3 -21
10 -16 20 8 20 -2 0 -57 -9 -27 -13 -59 -10 -81 5 -27 3 -38 -6 -38 -18 -1
-58 -36 -58 -51 0 -10 -3 -10 -12 -1 -8 8 -8 15 2 27 7 9 15 48 17 88 7 129 8
138 21 146 8 4 13 14 12 22 -4 28 0 39 15 39 8 0 16 -6 16 -12z m169 -398 c0
-5 -5 -10 -11 -10 -5 0 -7 5 -4 10 3 6 8 10 11 10 2 0 4 -4 4 -10z m3950 -112
c0 -19 -18 -43 -25 -36 -9 9 4 48 16 48 5 0 9 -6 9 -12z m-4319 -59 c-30 -48
-27 -68 7 -66 l27 2 -3 -83 c-4 -94 -14 -132 -37 -132 -8 0 -21 -11 -27 -25
-31 -68 -49 20 -38 185 1 14 -1 37 -5 52 -9 35 20 102 40 94 7 -2 19 2 26 10
23 28 31 -2 10 -37z m89 10 c7 -12 7 -20 -1 -24 -12 -8 -11 -9 -27 27 -9 23
-9 26 4 21 8 -3 19 -14 24 -24z m4195 -29 c-3 -5 -11 -10 -16 -10 -6 0 -7 5
-4 10 3 6 11 10 16 10 6 0 7 -4 4 -10z m70 -56 c-8 -16 -15 -37 -15 -46 0 -10
-4 -18 -10 -18 -16 0 -12 26 11 65 25 42 36 41 14 -1z m-4269 -82 c-10 -10
-29 15 -21 28 6 9 10 8 17 -4 6 -10 7 -20 4 -24z m241 -74 c-3 -8 -6 -5 -6 6
-1 11 2 17 5 13 3 -3 4 -12 1 -19z m4615 -176 c-9 -7 -8 -14 8 -32 22 -25 26
-40 10 -40 -13 0 -42 58 -35 70 3 6 12 10 18 10 9 0 8 -3 -1 -8z m-94 -119
c27 -43 37 -75 33 -108 -1 -6 -13 -11 -28 -10 -31 0 -45 31 -22 46 11 7 10 11
-5 22 -14 10 -17 21 -12 40 4 16 2 27 -6 29 -10 4 -4 28 7 28 1 0 17 -21 33
-47z m-98 -28 c-10 -12 -10 -19 -2 -27 7 -7 12 -22 12 -34 0 -18 -4 -20 -27
-16 -15 3 -38 16 -52 28 l-25 23 23 25 c37 39 103 40 71 1z m-4315 -65 c5 -16
4 -22 -3 -15 -5 6 -12 24 -16 40 -7 34 7 15 19 -25z m4494 -98 c1 -7 -3 -10
-9 -7 -5 3 -10 18 -9 33 0 24 1 25 9 7 5 -11 9 -26 9 -33z m-804 -112 c3 -5 1
-10 -4 -10 -6 0 -11 5 -11 10 0 6 2 10 4 10 3 0 8 -4 11 -10z m-2937 -80 c-6
-23 -13 -39 -16 -36 -7 8 8 76 17 76 5 0 4 -18 -1 -40z m-1348 -10 c0 -5 -4
-10 -10 -10 -5 0 -10 5 -10 10 0 6 5 10 10 10 6 0 10 -4 10 -10z m5568 -369
c-4 -18 -29 -22 -40 -6 -15 21 -8 32 17 27 17 -3 25 -10 23 -21z m-273 -272
c4 -6 -3 -18 -15 -26 -17 -12 -19 -17 -9 -24 17 -10 7 -21 -13 -14 -22 9 -11
75 13 75 10 0 21 -5 24 -11z m-75 -66 c-1 -18 -18 -35 -24 -24 -4 6 -4 16 -1
21 7 12 25 13 25 3z m-160 -107 c0 -2 -7 -9 -15 -16 -12 -10 -15 -10 -15 4 0
9 7 16 15 16 8 0 15 -2 15 -4z m-963 -478 c-3 -8 -6 -5 -6 6 -1 11 2 17 5 13
3 -3 4 -12 1 -19z"/>
<path d="M3780 7650 c0 -5 5 -10 11 -10 5 0 7 5 4 10 -3 6 -8 10 -11 10 -2 0
-4 -4 -4 -10z"/>
<path d="M3480 7425 c-13 -14 -20 -25 -16 -25 4 0 19 11 34 25 15 14 22 25 16
25 -6 0 -21 -11 -34 -25z"/>
<path d="M3400 7290 c-11 -7 -12 -12 -4 -20 9 -9 14 -9 18 -1 4 6 4 11 -1 11
-4 0 -1 5 7 10 8 5 11 10 5 10 -5 0 -17 -5 -25 -10z"/>
<path d="M3075 7330 c-3 -5 -1 -10 4 -10 6 0 11 5 11 10 0 6 -2 10 -4 10 -3 0
-8 -4 -11 -10z"/>
<path d="M2915 6080 c-8 -13 5 -13 25 0 13 8 13 10 -2 10 -9 0 -20 -4 -23 -10z"/>
<path d="M4348 5803 c6 -2 18 -2 25 0 6 3 1 5 -13 5 -14 0 -19 -2 -12 -5z"/>
<path d="M4193 5783 c-24 -8 -43 -19 -43 -24 0 -13 24 -11 67 5 21 8 54 18 73
24 l35 10 -45 0 c-25 0 -64 -6 -87 -15z"/>
<path d="M4295 5738 c-22 -6 -50 -15 -62 -20 -11 -6 -26 -7 -32 -4 -6 4 -24 0
-42 -9 -17 -9 -43 -16 -57 -15 -48 3 -64 0 -60 -12 6 -16 90 -40 102 -28 6 6
23 10 38 10 16 0 41 6 57 14 37 19 52 7 53 -41 l0 -41 66 -22 c37 -12 71 -25
77 -29 5 -5 33 -11 62 -14 51 -6 52 -5 74 30 21 33 23 34 36 17 19 -26 16 -33
-14 -40 -16 -4 -30 -10 -33 -14 -9 -14 -48 -21 -55 -10 -11 18 -25 11 -25 -12
0 -20 6 -23 40 -25 26 -2 40 2 40 10 0 6 12 -1 26 -16 19 -23 28 -26 39 -17
11 9 18 7 34 -9 15 -15 29 -19 44 -16 15 4 32 -1 48 -14 39 -30 73 -36 98 -15
12 10 21 24 21 31 0 6 8 17 18 22 9 6 14 11 10 12 -5 1 -12 3 -18 4 -5 1 -13
3 -16 4 -4 0 0 9 7 18 8 9 9 14 2 10 -21 -13 -45 4 -40 29 3 16 -1 25 -14 29
-9 3 -22 18 -27 33 -13 37 -61 84 -118 116 -55 31 -69 33 -34 6 22 -17 23 -19
7 -25 -24 -10 -67 3 -67 19 0 8 8 17 17 20 12 5 13 10 5 18 -8 8 -15 6 -28 -7
-18 -18 -22 -17 -124 4 -55 12 -102 12 -155 -1z m175 -84 c0 -10 -7 -14 -22
-12 -32 5 -35 28 -4 28 17 0 26 -5 26 -16z m230 -4 c0 -5 -4 -10 -10 -10 -5 0
-10 5 -10 10 0 6 5 10 10 10 6 0 10 -4 10 -10z"/>
<path d="M3050 5132 c0 -6 34 -27 76 -46 41 -20 93 -49 115 -66 33 -27 39 -29
39 -13 0 34 -38 80 -86 103 -52 26 -144 39 -144 22z"/>
<path d="M2363 5118 c-13 -6 -23 -15 -23 -20 0 -7 31 8 59 29 10 7 -16 1 -36
-9z"/>
<path d="M3541 4944 c-19 -8 -41 -20 -49 -27 -17 -14 -104 -38 -145 -40 -39
-3 -31 -29 12 -38 23 -5 58 -1 105 13 103 30 149 27 196 -11 37 -30 71 -38
104 -25 22 8 20 19 -10 51 -14 15 -32 35 -39 44 -13 14 -109 50 -131 49 -5 -1
-24 -7 -43 -16z"/>
<path d="M2408 4909 c-18 -10 -25 -59 -9 -59 5 0 14 -15 22 -32 20 -49 51 -88
70 -88 14 0 19 10 21 42 4 51 22 59 42 20 11 -22 21 -29 35 -25 13 3 21 -2 26
-16 l6 -21 29 21 28 22 36 -23 c20 -12 43 -20 50 -17 8 3 35 -8 60 -24 26 -16
57 -29 70 -29 12 0 45 -11 71 -25 27 -13 63 -27 79 -31 l31 -6 -23 24 c-12 14
-20 27 -17 30 3 3 -10 9 -29 12 -19 4 -36 10 -38 14 -2 4 -19 15 -38 24 -19
10 -42 22 -50 27 -8 5 -37 19 -65 32 -27 13 -56 27 -62 32 -17 12 -294 106
-313 106 -8 0 -23 -4 -32 -10z"/>
<path d="M3154 4575 c22 -17 36 -19 36 -6 0 10 -24 21 -43 21 -7 0 -3 -7 7
-15z"/>
<path d="M2650 4560 c0 -5 5 -10 10 -10 6 0 10 5 10 10 0 6 -4 10 -10 10 -5 0
-10 -4 -10 -10z"/>
<path d="M3200 4561 c0 -10 24 -21 48 -21 13 0 12 3 -4 15 -21 16 -44 19 -44
6z"/>
<path d="M3300 4560 c0 -5 9 -10 20 -10 11 0 20 5 20 10 0 6 -9 10 -20 10 -11
0 -20 -4 -20 -10z"/>
<path d="M3325 4504 c17 -13 46 -27 65 -30 19 -4 56 -17 82 -30 26 -13 65 -24
87 -24 33 0 43 -5 61 -31 13 -17 33 -34 46 -39 17 -7 24 -17 24 -35 0 -15 5
-25 13 -24 26 3 37 -2 37 -16 0 -12 4 -13 19 -4 10 7 26 9 35 6 24 -9 0 -55
-38 -72 l-31 -14 45 4 c25 2 45 4 45 5 0 1 13 3 29 5 16 2 34 9 39 14 6 6 25
11 43 11 39 0 47 18 28 56 -16 31 -70 84 -86 84 -6 0 -23 10 -40 21 -16 12
-48 27 -71 34 -23 7 -67 24 -97 38 -133 61 -203 78 -238 56 -15 -9 -33 -10
-73 -2 l-54 11 30 -24z m235 -18 c0 -3 -4 -8 -10 -11 -5 -3 -10 -1 -10 4 0 6
5 11 10 11 6 0 10 -2 10 -4z"/>
<path d="M4535 4360 c-10 -11 -24 -20 -32 -20 -8 0 -12 -4 -9 -9 3 -4 -15 -30
-39 -56 -25 -26 -45 -55 -45 -66 0 -13 -5 -17 -16 -12 -12 4 -15 2 -12 -8 7
-19 36 -12 81 19 21 15 47 32 59 39 26 14 41 48 32 76 -4 11 -1 23 7 28 10 6
11 11 3 19 -7 7 -16 5 -29 -10z"/>
<path d="M3445 4220 c3 -5 8 -10 11 -10 2 0 4 5 4 10 0 6 -5 10 -11 10 -5 0
-7 -4 -4 -10z"/>
<path d="M3550 4184 c0 -8 5 -12 10 -9 6 3 10 10 10 16 0 5 -4 9 -10 9 -5 0
-10 -7 -10 -16z"/>
<path d="M4350 4154 c0 -14 3 -14 15 -4 8 7 15 14 15 16 0 2 -7 4 -15 4 -8 0
-15 -7 -15 -16z"/>
<path d="M3375 4049 c-10 -15 1 -23 20 -15 9 3 13 10 10 16 -8 13 -22 13 -30
-1z"/>
<path d="M3428 4043 c7 -3 16 -2 19 1 4 3 -2 6 -13 5 -11 0 -14 -3 -6 -6z"/>
<path d="M4110 3690 c0 -5 5 -10 10 -10 6 0 10 5 10 10 0 6 -4 10 -10 10 -5 0
-10 -4 -10 -10z"/>
<path d="M5852 5975 c0 -16 2 -22 5 -12 2 9 2 23 0 30 -3 6 -5 -1 -5 -18z"/>
<path d="M1242 5251 c-10 -6 -10 -18 -1 -57 13 -56 41 -124 50 -124 11 0 19
29 10 35 -5 3 -7 15 -4 28 4 12 2 18 -3 14 -5 -5 -15 18 -24 52 -11 45 -18 58
-28 52z"/>
<path d="M1246 5087 c3 -10 9 -15 12 -12 3 3 0 11 -7 18 -10 9 -11 8 -5 -6z"/>
<path d="M1317 4284 c-41 -52 -51 -87 -12 -39 14 17 32 38 41 47 9 9 14 22 12
28 -2 7 -20 -9 -41 -36z"/>
<path d="M747 3350 c3 -11 7 -20 9 -20 2 0 4 9 4 20 0 11 -4 20 -9 20 -5 0 -7
-9 -4 -20z"/>
<path d="M3288 8293 c7 -3 16 -2 19 1 4 3 -2 6 -13 5 -11 0 -14 -3 -6 -6z"/>
<path d="M3065 8256 c-11 -7 -35 -17 -54 -21 -79 -17 -350 -153 -335 -168 12
-11 58 5 84 29 14 13 40 27 58 30 18 4 32 10 32 14 0 5 13 13 29 18 25 9 29 8
24 -5 -4 -11 1 -14 22 -11 35 4 46 28 13 28 l-23 1 23 19 c16 13 34 17 62 15
22 -3 40 0 40 5 0 6 7 10 16 10 8 0 13 4 9 10 -3 5 7 16 22 24 16 9 21 15 13
16 -9 0 -24 -6 -35 -14z"/>
<path d="M5431 7175 c1 -19 18 -51 18 -35 0 8 -4 22 -9 30 -5 8 -9 11 -9 5z"/>
<path d="M5590 6908 c0 -18 3 -51 7 -73 6 -38 7 -39 14 -13 8 32 0 106 -12
114 -5 3 -9 -10 -9 -28z"/>
<path d="M6110 5361 c0 -5 5 -13 10 -16 6 -3 10 -2 10 4 0 5 -4 13 -10 16 -5
3 -10 2 -10 -4z"/>
<path d="M6130 5321 c0 -5 5 -13 10 -16 6 -3 10 -2 10 4 0 5 -4 13 -10 16 -5
3 -10 2 -10 -4z"/>
<path d="M952 5118 c-13 -53 -10 -70 10 -50 10 10 14 90 5 99 -2 1 -9 -20 -15
-49z"/>
<path d="M840 5115 c0 -8 2 -15 4 -15 2 0 6 7 10 15 3 8 1 15 -4 15 -6 0 -10
-7 -10 -15z"/>
<path d="M810 5086 c0 -9 5 -16 10 -16 6 0 10 4 10 9 0 6 -4 13 -10 16 -5 3
-10 -1 -10 -9z"/>
<path d="M930 4995 c0 -8 2 -15 4 -15 2 0 6 7 10 15 3 8 1 15 -4 15 -6 0 -10
-7 -10 -15z"/>
<path d="M781 4719 c-10 -45 -9 -71 3 -58 5 6 16 109 11 109 -2 0 -8 -23 -14
-51z"/>
<path d="M945 4670 c-3 -5 -1 -10 4 -10 6 0 11 5 11 10 0 6 -2 10 -4 10 -3 0
-8 -4 -11 -10z"/>
<path d="M687 4593 c-4 -3 -7 -26 -7 -50 0 -37 3 -44 18 -41 10 2 16 11 14 23
-2 11 -3 32 -2 48 0 26 -9 34 -23 20z"/>
<path d="M595 4509 c-46 -58 -55 -90 -17 -55 11 9 26 14 35 10 18 -6 28 12 42
74 10 48 -8 40 -60 -29z"/>
<path d="M891 4524 c0 -11 3 -14 6 -6 3 7 2 16 -1 19 -3 4 -6 -2 -5 -13z"/>
<path d="M595 4429 c-12 -18 3 -22 20 -5 14 14 14 16 1 16 -8 0 -18 -5 -21
-11z"/>
<path d="M895 4299 c-11 -17 1 -21 15 -4 8 9 8 15 2 15 -6 0 -14 -5 -17 -11z"/>
<path d="M1000 4284 c0 -8 -15 -21 -33 -29 -38 -16 -70 -48 -60 -60 5 -4 3 -5
-3 -2 -11 6 -72 -60 -138 -151 -21 -29 -47 -57 -57 -63 -10 -5 -19 -17 -19
-25 0 -9 -5 -12 -11 -8 -7 4 -9 0 -5 -12 3 -11 -3 -36 -15 -58 -27 -51 -18
-70 12 -24 13 21 29 38 35 38 12 0 94 73 94 84 0 4 -10 2 -21 -5 -14 -7 -19
-7 -15 0 4 6 22 18 41 27 19 9 35 21 35 26 0 11 51 81 63 86 4 2 18 25 31 50
13 26 38 62 55 81 31 34 40 61 21 61 -5 0 -10 -7 -10 -16z m-265 -344 c-10
-11 -21 -17 -24 -14 -3 3 3 12 13 20 28 20 32 17 11 -6z"/>
<path d="M690 4120 c-8 -5 -12 -12 -9 -15 4 -3 12 1 19 10 14 17 11 19 -10 5z"/>
<path d="M595 4080 c-3 -6 1 -7 9 -4 18 7 21 14 7 14 -6 0 -13 -4 -16 -10z"/>
<path d="M566 3784 c-5 -14 -4 -15 9 -4 17 14 19 20 6 20 -5 0 -12 -7 -15 -16z"/>
<path d="M6195 3745 c2 -50 14 -90 16 -54 0 8 2 28 4 44 3 35 -3 65 -14 65 -4
0 -7 -25 -6 -55z"/>
<path d="M526 3705 c-3 -8 -1 -15 4 -15 6 0 10 7 10 15 0 8 -2 15 -4 15 -2 0
-6 -7 -10 -15z"/>
<path d="M622 3659 c-7 -11 -11 -24 -8 -27 10 -9 28 15 24 32 -2 14 -5 13 -16
-5z"/>
<path d="M515 3650 c-3 -5 -1 -10 4 -10 6 0 11 5 11 10 0 6 -2 10 -4 10 -3 0
-8 -4 -11 -10z"/>
<path d="M6187 3582 c-4 -32 -9 -66 -13 -75 -3 -10 -1 -17 5 -17 6 0 11 9 11
20 0 12 7 34 15 50 9 18 13 40 9 55 -10 41 -21 29 -27 -33z"/>
<path d="M601 3584 c0 -11 3 -14 6 -6 3 7 2 16 -1 19 -3 4 -6 -2 -5 -13z"/>
<path d="M504 3528 c-8 -18 -25 -48 -36 -67 -20 -31 -22 -49 -23 -177 0 -102
4 -147 13 -155 10 -10 12 3 13 67 1 43 0 83 -1 89 -1 5 -1 17 0 25 0 8 1 40 1
70 0 37 5 60 16 73 17 18 18 18 24 0 3 -10 7 3 7 31 1 26 7 54 13 62 9 11 9
14 0 14 -7 0 -19 -15 -27 -32z"/>
<path d="M645 3321 c0 -16 3 -33 8 -37 4 -4 7 9 7 29 0 21 -3 37 -7 37 -5 0
-8 -13 -8 -29z"/>
<path d="M3620 2970 c0 -5 5 -10 11 -10 5 0 7 5 4 10 -3 6 -8 10 -11 10 -2 0
-4 -4 -4 -10z"/>
<path d="M60 2491 c-42 -5 -56 -10 -58 -24 -3 -15 3 -17 56 -13 55 4 102 21
102 38 0 8 -12 8 -100 -1z"/>
<path d="M1836 2483 c-4 -9 -2 -21 4 -27 7 -7 10 -2 10 17 0 31 -5 34 -14 10z"/>
<path d="M165 2420 c-3 -5 3 -10 14 -10 12 0 21 5 21 10 0 6 -6 10 -14 10 -8
0 -18 -4 -21 -10z"/>
<path d="M175 2070 c3 -5 8 -10 11 -10 2 0 4 5 4 10 0 6 -5 10 -11 10 -5 0 -7
-4 -4 -10z"/>
<path d="M5922 2018 c-7 -7 -12 -17 -12 -24 0 -7 -5 -14 -12 -16 -17 -6 23
-82 46 -87 18 -3 18 -1 -3 27 -27 38 -27 43 4 29 13 -7 29 -23 36 -37 6 -14
13 -20 15 -15 2 6 -11 39 -29 73 -26 48 -36 59 -45 50z"/>
<path d="M6104 2018 c-4 -7 -2 -14 4 -16 7 -2 12 -12 12 -22 0 -18 39 -54 48
-45 3 2 -3 16 -12 30 -9 14 -15 29 -12 33 3 5 -4 13 -14 20 -15 9 -21 9 -26 0z"/>
<path d="M6013 1969 c-2 -29 3 -49 17 -66 24 -30 26 -45 5 -37 -19 8 -19 -3
-1 -22 8 -8 22 -11 31 -8 11 5 18 0 22 -16 4 -13 8 -17 13 -11 10 17 40 2 40
-20 0 -23 17 -24 41 -3 15 13 16 20 6 38 -7 11 -18 25 -25 29 -7 5 -10 13 -6
18 7 13 -15 69 -28 69 -5 0 -30 16 -55 35 -25 19 -49 35 -52 35 -3 0 -7 -19
-8 -41z m74 -36 c-8 -7 -37 9 -31 19 3 5 12 4 20 -3 8 -6 13 -14 11 -16z"/>
<path d="M6210 1891 c0 -12 7 -29 15 -37 13 -14 15 -13 15 3 0 10 -7 27 -15
37 -15 19 -15 19 -15 -3z"/>
<path d="M5940 1845 c0 -9 9 -15 24 -15 30 0 42 15 20 24 -27 10 -44 7 -44 -9z"/>
<path d="M6255 1840 c3 -5 8 -10 11 -10 2 0 4 5 4 10 0 6 -5 10 -11 10 -5 0
-7 -4 -4 -10z"/>
<path d="M5980 1783 c0 -7 4 -13 9 -13 5 0 11 6 14 13 3 8 -1 14 -9 14 -8 0
-14 -6 -14 -14z"/>
<path d="M6040 1710 c0 -5 5 -10 10 -10 6 0 10 5 10 10 0 6 -4 10 -10 10 -5 0
-10 -4 -10 -10z"/>
<path d="M1550 1466 c0 -2 7 -9 15 -16 13 -11 14 -10 9 4 -5 14 -24 23 -24 12z"/>
<path d="M2398 1153 c6 -2 18 -2 25 0 6 3 1 5 -13 5 -14 0 -19 -2 -12 -5z"/>
<path d="M2456 1149 c6 -10 64 -17 69 -8 3 4 -13 9 -34 11 -22 2 -38 0 -35 -3z"/>
<path d="M5530 1150 c0 -5 7 -10 15 -10 8 0 15 5 15 10 0 6 -7 10 -15 10 -8 0
-15 -4 -15 -10z"/>
<path d="M2588 1133 c7 -3 16 -2 19 1 4 3 -2 6 -13 5 -11 0 -14 -3 -6 -6z"/>
<path d="M5155 910 c3 -5 8 -10 11 -10 2 0 4 5 4 10 0 6 -5 10 -11 10 -5 0 -7
-4 -4 -10z"/>
<path d="M5310 866 c0 -8 5 -18 10 -21 6 -3 10 1 10 9 0 8 -4 18 -10 21 -5 3
-10 -1 -10 -9z"/>
<path d="M4406 721 c-4 -5 3 -7 14 -4 23 6 26 13 6 13 -8 0 -17 -4 -20 -9z"/>
<path d="M4952 706 c7 -8 16 -12 21 -9 11 7 -2 23 -19 23 -12 0 -12 -2 -2 -14z"/>
<path d="M6683 655 c14 -28 22 -31 31 -10 3 8 -3 19 -14 25 -27 15 -29 13 -17
-15z"/>
<path d="M4376 643 c-6 -14 -5 -15 5 -6 7 7 10 15 7 18 -3 3 -9 -2 -12 -12z"/>
<path d="M6850 585 c0 -8 -9 -15 -21 -15 -11 0 -17 -4 -14 -10 9 -14 21 -12
39 6 18 18 21 34 6 34 -5 0 -10 -7 -10 -15z"/>
<path d="M6935 589 c-12 -19 5 -23 22 -6 16 16 16 17 1 17 -9 0 -20 -5 -23
-11z"/>
<path d="M6690 570 c0 -5 5 -10 10 -10 6 0 10 5 10 10 0 6 -4 10 -10 10 -5 0
-10 -4 -10 -10z"/>
<path d="M4470 530 c0 -5 7 -10 15 -10 8 0 15 5 15 10 0 6 -7 10 -15 10 -8 0
-15 -4 -15 -10z"/>
<path d="M6635 510 c3 -5 8 -10 11 -10 2 0 4 5 4 10 0 6 -5 10 -11 10 -5 0 -7
-4 -4 -10z"/>
<path d="M6740 504 c0 -8 5 -12 10 -9 6 4 8 11 5 16 -9 14 -15 11 -15 -7z"/>
<path d="M4554 488 c-4 -6 -3 -8 4 -4 5 3 12 1 14 -6 3 -8 6 -9 11 -1 4 6 0
13 -8 17 -8 3 -17 0 -21 -6z"/>
<path d="M6660 469 c0 -11 5 -17 10 -14 6 3 10 13 10 21 0 8 -4 14 -10 14 -5
0 -10 -9 -10 -21z"/>
<path d="M6796 474 c-3 -8 -1 -14 5 -14 7 0 9 -10 5 -25 -4 -14 -4 -25 -2 -25
2 0 12 -3 22 -7 14 -5 16 -2 10 21 -4 16 -2 34 4 41 8 10 5 14 -14 17 -15 3
-27 0 -30 -8z"/>
<path d="M6700 474 c0 -3 7 -12 16 -21 8 -9 13 -22 10 -29 -3 -8 -1 -14 5 -14
6 0 8 -4 5 -9 -3 -5 1 -12 10 -15 13 -5 15 -1 10 19 -5 18 -2 25 9 25 8 0 15
5 15 10 0 6 -11 10 -25 10 -14 0 -28 7 -31 15 -6 14 -24 21 -24 9z"/>
<path d="M6863 460 c-6 -15 -7 -26 -1 -29 15 -5 20 5 16 31 l-5 23 -10 -25z"/>
<path d="M6678 433 c7 -3 16 -2 19 1 4 3 -2 6 -13 5 -11 0 -14 -3 -6 -6z"/>
<path d="M6959 334 c-12 -14 -11 -16 5 -13 11 2 21 10 24 17 5 17 -13 15 -29
-4z"/>
<path d="M7048 333 c7 -3 16 -2 19 1 4 3 -2 6 -13 5 -11 0 -14 -3 -6 -6z"/>
<path d="M6612 290 c19 -38 21 -39 43 -24 26 17 40 64 19 64 -8 0 -14 -11 -14
-25 0 -14 -4 -25 -10 -25 -5 0 -10 5 -10 11 0 11 -29 38 -41 39 -4 0 2 -18 13
-40z"/>
<path d="M6927 303 c-7 -11 10 -40 18 -31 4 4 3 14 -3 24 -5 9 -12 12 -15 7z"/>
<path d="M6875 280 c3 -5 8 -10 11 -10 2 0 4 5 4 10 0 6 -5 10 -11 10 -5 0 -7
-4 -4 -10z"/>
<path d="M6800 260 c0 -5 7 -10 15 -10 8 0 15 5 15 10 0 6 -7 10 -15 10 -8 0
-15 -4 -15 -10z"/>
<path d="M6695 250 c-3 -5 -1 -10 4 -10 6 0 11 5 11 10 0 6 -2 10 -4 10 -3 0
-8 -4 -11 -10z"/>
<path d="M6744 248 c-3 -5 2 -11 10 -14 16 -6 36 2 36 14 0 10 -40 10 -46 0z"/>
<path d="M6840 234 c0 -8 5 -12 10 -9 6 3 10 10 10 16 0 5 -4 9 -10 9 -5 0
-10 -7 -10 -16z"/>
<path d="M6690 220 c0 -5 5 -10 10 -10 6 0 10 5 10 10 0 6 -4 10 -10 10 -5 0
-10 -4 -10 -10z"/>
<path d="M6782 208 c-16 -16 -15 -28 3 -28 8 0 15 -5 15 -12 0 -17 16 2 25 30
5 17 2 22 -12 22 -11 0 -24 -5 -31 -12z"/>
<path d="M6640 200 c0 -5 7 -10 16 -10 8 0 12 5 9 10 -3 6 -10 10 -16 10 -5 0
-9 -4 -9 -10z"/>
<path d="M6375 190 c-3 -5 -2 -10 4 -10 5 0 13 5 16 10 3 6 2 10 -4 10 -5 0
-13 -4 -16 -10z"/>
<path d="M6933 179 c-43 -20 -56 -39 -28 -39 8 0 15 5 15 10 0 14 27 12 33 -2
4 -8 8 -4 12 10 4 12 11 22 16 22 5 0 9 5 9 10 0 14 -9 12 -57 -11z"/>
<path d="M6753 163 c-16 -6 -17 -36 -2 -31 6 2 10 7 9 12 -1 5 4 13 12 17 14
9 1 11 -19 2z"/>
<path d="M6664 138 c5 -21 3 -28 -9 -28 -8 0 -15 -4 -15 -10 0 -13 1 -13 41 7
21 11 28 18 19 21 -8 2 -21 12 -29 21 -12 14 -13 13 -7 -11z"/>
<path d="M6840 153 c-8 -3 -19 -12 -23 -19 -4 -8 -15 -14 -22 -14 -22 0 -18
-17 7 -34 31 -22 35 -20 42 14 3 18 12 30 21 30 8 0 15 7 15 15 0 15 -13 18
-40 8z"/>
<path d="M6600 139 c0 -5 5 -7 10 -4 6 3 10 8 10 11 0 2 -4 4 -10 4 -5 0 -10
-5 -10 -11z"/>
<path d="M6568 114 c6 -3 12 -14 12 -25 0 -23 38 -26 47 -4 7 21 3 24 -38 30
-19 3 -28 3 -21 -1z"/>
<path d="M6970 110 c0 -5 -7 -7 -17 -3 -13 5 -15 2 -10 -18 4 -13 7 -27 7 -31
0 -5 5 -8 11 -8 6 0 9 9 6 20 -3 11 -1 18 4 14 5 -3 9 4 9 15 0 12 -2 21 -5
21 -3 0 -5 -4 -5 -10z"/>
<path d="M6719 83 c-5 -24 -4 -83 2 -83 14 0 18 14 8 27 -9 9 -8 13 0 13 6 0
11 9 11 19 0 11 6 22 13 24 6 3 2 6 -10 6 -13 1 -24 -2 -24 -6z"/>
<path d="M6640 50 c0 -11 6 -20 14 -20 8 0 16 -6 19 -12 2 -7 3 -4 1 6 -2 11
2 26 8 33 8 10 5 13 -16 13 -19 0 -26 -5 -26 -20z"/>
<path d="M6910 40 c0 -5 7 -10 15 -10 8 0 15 5 15 10 0 6 -7 10 -15 10 -8 0
-15 -4 -15 -10z"/>
<path d="M7026 43 c-11 -11 -6 -23 9 -23 8 0 15 4 15 9 0 13 -16 22 -24 14z"/>
<path d="M7090 40 c0 -5 5 -10 10 -10 6 0 10 5 10 10 0 6 -4 10 -10 10 -5 0
-10 -4 -10 -10z"/>
<path d="M6598 34 c-19 -18 -7 -34 25 -33 22 1 25 3 10 6 -12 2 -23 11 -25 20
-2 8 -6 11 -10 7z"/>
</g>
</svg>
